<svg xmlns="http://www.w3.org/2000/svg" width="210" height="56" viewBox="0 0 210 56" fill="none">
  <path d="M10 37C30 11 62 9 82 24C95 34 111 41 129 31C148 20 154 7 173 11C188 14 198 24 200 33" stroke="#D0AE94" stroke-width="2.4" stroke-linecap="round" stroke-dasharray="2 8"/>
  <path d="M31 37C31 28 38 21 47 21C56 21 63 28 63 37C63 46 56 53 47 53C38 53 31 46 31 37Z" fill="#FFF8F0" stroke="#8D5332" stroke-width="1.5"/>
  <circle cx="43.5" cy="33.5" r="1.3" fill="#8D5332"/>
  <circle cx="50.5" cy="33.5" r="1.3" fill="#8D5332"/>
  <circle cx="43.5" cy="40.5" r="1.3" fill="#8D5332"/>
  <circle cx="50.5" cy="40.5" r="1.3" fill="#8D5332"/>
</svg>
