<svg xmlns="http://www.w3.org/2000/svg" width="180" height="120" viewBox="0 0 180 120" fill="none">
  <path d="M18 26C42 8 61 38 82 30C102 22 113 10 137 18C150 22 160 34 164 45" stroke="#C39A7C" stroke-width="2.5" stroke-linecap="round" stroke-dasharray="2 8"/>
  <path d="M26 86C50 98 67 82 90 88C108 92 122 105 145 92" stroke="#D3B39A" stroke-width="2.5" stroke-linecap="round" stroke-dasharray="2 9"/>
  <circle cx="43" cy="77" r="16" fill="#F9F1E7" stroke="#8D5332" stroke-width="1.7"/>
  <circle cx="38" cy="72" r="1.8" fill="#8D5332"/>
  <circle cx="48" cy="72" r="1.8" fill="#8D5332"/>
  <circle cx="38" cy="82" r="1.8" fill="#8D5332"/>
  <circle cx="48" cy="82" r="1.8" fill="#8D5332"/>
  <circle cx="132" cy="84" r="11" fill="#FFF8F1" stroke="#8D5332" stroke-width="1.5"/>
  <circle cx="128" cy="80" r="1.4" fill="#8D5332"/>
  <circle cx="136" cy="80" r="1.4" fill="#8D5332"/>
  <circle cx="128" cy="88" r="1.4" fill="#8D5332"/>
  <circle cx="136" cy="88" r="1.4" fill="#8D5332"/>
  <path d="M152 55L166 41" stroke="#8D5332" stroke-width="1.8" stroke-linecap="round"/>
  <path d="M163 44L169 38" stroke="#8D5332" stroke-width="1.8" stroke-linecap="round"/>
  <path d="M166 41L173 40" stroke="#8D5332" stroke-width="1.4" stroke-linecap="round"/>
</svg>
