<svg xmlns="http://www.w3.org/2000/svg" viewBox="0 0 120 150" fill="none">
  <path d="M36 18H84L76 42H44L36 18Z" fill="#D8B597" stroke="#8D5332" stroke-width="4"/>
  <rect x="34" y="42" width="52" height="66" rx="10" fill="#FFF8F1" stroke="#8D5332" stroke-width="4"/>
  <path d="M38 54C50 49 70 49 82 54" stroke="#C49068" stroke-width="3"/>
  <path d="M38 66C50 61 70 61 82 66" stroke="#C49068" stroke-width="3"/>
  <path d="M38 78C50 73 70 73 82 78" stroke="#C49068" stroke-width="3"/>
  <path d="M38 90C50 85 70 85 82 90" stroke="#C49068" stroke-width="3"/>
  <path d="M36 132H84L76 108H44L36 132Z" fill="#D8B597" stroke="#8D5332" stroke-width="4"/>
  <path d="M86 76C104 84 110 102 100 118" stroke="#8D5332" stroke-width="3" stroke-linecap="round" stroke-dasharray="4 7"/>
</svg>
